<?xml version="1.0" encoding="UTF-8" standalone="no"?>
<!-- Created with Inkscape (http://www.inkscape.org/) -->

<svg
   xmlns:dc="http://purl.org/dc/elements/1.1/"
   xmlns:cc="http://creativecommons.org/ns#"
   xmlns:rdf="http://www.w3.org/1999/02/22-rdf-syntax-ns#"
   xmlns:svg="http://www.w3.org/2000/svg"
   xmlns="http://www.w3.org/2000/svg"
   xmlns:sodipodi="http://sodipodi.sourceforge.net/DTD/sodipodi-0.dtd"
   xmlns:inkscape="http://www.inkscape.org/namespaces/inkscape"
   width="93.937569mm"
   height="10.16mm"
   viewBox="0 0 93.937569 10.16"
   version="1.1"
   id="svg8"
   inkscape:version="0.92.4 (5da689c313, 2019-01-14)"
   sodipodi:docname="logo-large.svg">
  <defs
     id="defs2" />
  <sodipodi:namedview
     id="base"
     pagecolor="#ffffff"
     bordercolor="#666666"
     borderopacity="1.0"
     inkscape:pageopacity="0.0"
     inkscape:pageshadow="2"
     inkscape:zoom="0.98994949"
     inkscape:cx="160.73333"
     inkscape:cy="62.98309"
     inkscape:document-units="mm"
     inkscape:current-layer="layer1"
     showgrid="false"
     inkscape:window-width="1074"
     inkscape:window-height="729"
     inkscape:window-x="276"
     inkscape:window-y="0"
     inkscape:window-maximized="0" />
  <metadata
     id="metadata5">
    <rdf:RDF>
      <cc:Work
         rdf:about="">
        <dc:format>image/svg+xml</dc:format>
        <dc:type
           rdf:resource="http://purl.org/dc/dcmitype/StillImage" />
        <dc:title />
      </cc:Work>
    </rdf:RDF>
  </metadata>
  <g
     inkscape:label="Camada 1"
     inkscape:groupmode="layer"
     id="layer1"
     transform="translate(-53.534709,-155.48451)">
    <g
       aria-label="TUNE SEARCH"
       style="font-style:italic;font-variant:normal;font-weight:300;font-stretch:normal;font-size:14.11111069px;line-height:1.25;font-family:Rubik;-inkscape-font-specification:'Rubik Light Italic';letter-spacing:0px;word-spacing:0px;fill:#212121;fill-opacity:1;stroke:none;stroke-width:0.26458332"
       id="text817">
      <path
         d="m 60.428994,155.62563 q 0.324556,0 0.254,0.32455 l -0.04233,0.21167 q -0.07056,0.31044 -0.381,0.31044 h -2.779889 l -1.862667,8.72067 q -0.07055,0.31044 -0.381,0.31044 h -0.254 q -0.141111,0 -0.211666,-0.0847 -0.07056,-0.0847 -0.04233,-0.22578 l 1.862667,-8.72067 h -2.794 q -0.141111,0 -0.211667,-0.0847 -0.07055,-0.0847 -0.04233,-0.22578 l 0.04233,-0.21167 q 0.07056,-0.32455 0.381,-0.32455 z"
         style="font-style:italic;font-variant:normal;font-weight:300;font-stretch:normal;font-size:14.11111069px;font-family:Rubik;-inkscape-font-specification:'Rubik Light Italic';fill:#212121;fill-opacity:1;stroke-width:0.26458332"
         id="path1398" />
      <path
         d="m 68.652685,155.95018 q 0.07055,-0.32455 0.395111,-0.32455 h 0.254 q 0.310444,0 0.239889,0.32455 l -1.213556,5.72911 q -0.437444,2.06022 -1.509888,3.01978 -1.058334,0.94544 -2.892778,0.94544 -1.834445,0 -2.568222,-0.94544 -0.733778,-0.95956 -0.296334,-3.01978 l 1.213556,-5.72911 q 0.07056,-0.32455 0.381,-0.32455 h 0.254 q 0.324555,0 0.254,0.32455 l -1.227667,5.77145 q -0.338666,1.59455 0.112889,2.34244 0.451556,0.73378 1.876778,0.73378 1.368778,0 2.257778,-0.73378 0.903111,-0.74789 1.241777,-2.34244 z"
         style="font-style:italic;font-variant:normal;font-weight:300;font-stretch:normal;font-size:14.11111069px;font-family:Rubik;-inkscape-font-specification:'Rubik Light Italic';fill:#212121;fill-opacity:1;stroke-width:0.26458332"
         id="path1400" />
      <path
         d="m 72.736528,157.30485 -1.679222,7.88811 q -0.07056,0.31044 -0.381,0.31044 h -0.268112 q -0.141111,0 -0.211666,-0.0847 -0.07056,-0.0847 -0.04233,-0.22578 l 1.961445,-9.24278 q 0.07055,-0.32455 0.366889,-0.32455 h 0.282222 q 0.141111,0 0.183444,0.0564 0.05644,0.0564 0.08467,0.11289 l 3.541889,8.05744 1.679222,-7.90222 q 0.07056,-0.32455 0.381,-0.32455 h 0.254 q 0.324556,0 0.254,0.32455 l -1.961444,9.22867 q -0.07056,0.32455 -0.366889,0.32455 h -0.282223 q -0.141111,0 -0.197555,-0.0564 -0.04233,-0.0564 -0.07056,-0.11289 z"
         style="font-style:italic;font-variant:normal;font-weight:300;font-stretch:normal;font-size:14.11111069px;font-family:Rubik;-inkscape-font-specification:'Rubik Light Italic';fill:#212121;fill-opacity:1;stroke-width:0.26458332"
         id="path1402" />
      <path
         d="m 85.895139,164.65674 q 0.324556,0 0.254,0.32455 l -0.04233,0.21167 q -0.07056,0.31044 -0.381,0.31044 h -5.616222 q -0.141111,0 -0.211667,-0.0847 -0.07056,-0.0847 -0.04233,-0.22578 l 1.961444,-9.24278 q 0.07056,-0.32455 0.381,-0.32455 h 5.503333 q 0.324556,0 0.254,0.32455 l -0.04233,0.21167 q -0.07056,0.31044 -0.381,0.31044 H 82.60725 l -0.776111,3.59834 h 4.614333 q 0.324556,0 0.254,0.32455 l -0.04233,0.21167 q -0.07055,0.31044 -0.381,0.31044 h -4.614333 l -0.804333,3.73945 z"
         style="font-style:italic;font-variant:normal;font-weight:300;font-stretch:normal;font-size:14.11111069px;font-family:Rubik;-inkscape-font-specification:'Rubik Light Italic';fill:#212121;fill-opacity:1;stroke-width:0.26458332"
         id="path1404" />
      <path
         d="m 95.90653,155.48451 q 0.945445,0 1.665111,0.254 0.719667,0.254 1.199445,0.635 0.479778,0.381 0.719666,0.84667 0.254,0.45156 0.282223,0.86078 0.01411,0.16933 -0.112889,0.28222 -0.112889,0.0988 -0.268111,0.0988 h -0.987778 q -0.239889,0 -0.366889,-0.0847 -0.112889,-0.0988 -0.211667,-0.254 -0.211666,-0.35278 -0.649111,-0.60678 -0.423333,-0.26811 -1.27,-0.26811 -0.366889,0 -0.705555,0.0847 -0.324556,0.0706 -0.578556,0.22578 -0.239889,0.14111 -0.381,0.35278 -0.141111,0.21166 -0.141111,0.47977 0,0.32456 0.127,0.53623 0.141111,0.19755 0.451556,0.35277 0.324555,0.14111 0.846666,0.26811 0.522111,0.127 1.298222,0.29634 0.846667,0.18344 1.453445,0.43744 0.620889,0.23989 1.001889,0.59267 0.395111,0.33867 0.578555,0.79022 0.197559,0.45156 0.197559,1.03011 0,0.635 -0.282225,1.18533 -0.282223,0.53623 -0.804334,0.93134 -0.522111,0.381 -1.284111,0.60678 -0.762,0.22577 -1.707444,0.22577 -0.790222,0 -1.509889,-0.18344 -0.719667,-0.19756 -1.284111,-0.55033 -0.550333,-0.36689 -0.889,-0.87489 -0.338667,-0.508 -0.381,-1.12889 -0.01411,-0.16933 0.09878,-0.26811 0.127,-0.11289 0.282222,-0.11289 h 0.987778 q 0.239889,0 0.366889,0.0847 0.127,0.0847 0.211666,0.254 0.09878,0.18344 0.239889,0.36688 0.141111,0.18345 0.381,0.32456 0.239889,0.14111 0.592667,0.23989 0.366889,0.0847 0.903111,0.0847 0.423333,0 0.818444,-0.0564 0.395111,-0.0706 0.691445,-0.21167 0.296333,-0.15522 0.479777,-0.36689 0.183445,-0.22577 0.183445,-0.55033 0,-0.31044 -0.197556,-0.508 -0.197555,-0.19755 -0.606777,-0.33866 -0.395112,-0.14112 -0.987778,-0.26812 -0.592667,-0.127 -1.368778,-0.32455 -0.705555,-0.16933 -1.241778,-0.39511 -0.522111,-0.23989 -0.874889,-0.57856 -0.338666,-0.33866 -0.508,-0.79022 -0.169333,-0.46567 -0.169333,-1.10067 0,-0.635 0.282222,-1.17122 0.282223,-0.53622 0.776111,-0.91722 0.493889,-0.381 1.171223,-0.59267 0.691444,-0.22578 1.481666,-0.22578 z"
         style="font-style:normal;font-variant:normal;font-weight:500;font-stretch:normal;font-size:14.11111069px;font-family:Rubik;-inkscape-font-specification:'Rubik Medium';fill:#212121;fill-opacity:1"
         id="path1406" />
      <path
         d="m 108.24581,163.73951 q 0.15523,0 0.26812,0.11289 0.11288,0.11289 0.11288,0.26811 v 1.00189 q 0,0.15522 -0.11288,0.26811 -0.11289,0.11289 -0.26812,0.11289 h -6.19477 q -0.15523,0 -0.26811,-0.11289 -0.11289,-0.11289 -0.11289,-0.26811 v -9.11577 q 0,-0.15523 0.11289,-0.26812 0.11288,-0.11288 0.26811,-0.11288 h 6.08189 q 0.15522,0 0.26811,0.11288 0.11289,0.11289 0.11289,0.26812 v 1.00188 q 0,0.15523 -0.11289,0.26812 -0.11289,0.11288 -0.26811,0.11288 h -4.55789 v 2.24367 h 4.24744 q 0.15522,0 0.26811,0.11289 0.11289,0.11289 0.11289,0.26811 v 1.00189 q 0,0.15522 -0.11289,0.26811 -0.11289,0.11289 -0.26811,0.11289 h -4.24744 v 2.34244 z"
         style="font-style:normal;font-variant:normal;font-weight:500;font-stretch:normal;font-size:14.11111069px;font-family:Rubik;-inkscape-font-specification:'Rubik Medium';fill:#212121;fill-opacity:1"
         id="path1408" />
      <path
         d="m 115.02179,155.62563 q 0.22578,0 0.33867,0.127 0.11289,0.11288 0.19756,0.35277 l 3.45722,8.91822 q 0.0141,0.0423 0.0141,0.0988 0,0.15522 -0.11289,0.26811 -0.11289,0.11289 -0.26811,0.11289 h -1.016 q -0.28222,0 -0.39511,-0.11289 -0.11289,-0.127 -0.15522,-0.23989 l -0.60678,-1.56633 h -4.45911 l -0.60678,1.56633 q -0.0423,0.11289 -0.15522,0.23989 -0.11289,0.11289 -0.39511,0.11289 h -1.016 q -0.15523,0 -0.26811,-0.11289 -0.11289,-0.11289 -0.11289,-0.26811 0,-0.0564 0.0141,-0.0988 l 3.45722,-8.91822 q 0.0847,-0.23989 0.19756,-0.35277 0.11288,-0.127 0.33866,-0.127 z m 0.77612,6.19477 -1.55223,-4.02166 -1.55222,4.02166 z"
         style="font-style:normal;font-variant:normal;font-weight:500;font-stretch:normal;font-size:14.11111069px;font-family:Rubik;-inkscape-font-specification:'Rubik Medium';fill:#212121;fill-opacity:1"
         id="path1410" />
      <path
         d="m 124.32278,155.62563 q 1.76389,0 2.68111,0.81844 0.91722,0.81844 0.91722,2.27189 0,1.03011 -0.47978,1.76389 -0.46566,0.71966 -1.38289,1.07244 l 1.94734,3.48545 q 0.0423,0.0847 0.0423,0.15522 0,0.127 -0.0988,0.22578 -0.0847,0.0847 -0.21166,0.0847 h -1.19945 q -0.28222,0 -0.42333,-0.127 -0.127,-0.14111 -0.18345,-0.254 l -1.84855,-3.28789 h -1.87678 v 3.28789 q 0,0.15522 -0.11289,0.26811 -0.11289,0.11289 -0.26811,0.11289 h -1.143 q -0.15522,0 -0.26811,-0.11289 -0.11289,-0.11289 -0.11289,-0.26811 v -9.11577 q 0,-0.15523 0.11289,-0.26812 0.11289,-0.11288 0.26811,-0.11288 z m -2.11667,4.445 h 2.04611 q 0.80433,0 1.28411,-0.28223 0.47978,-0.28222 0.47978,-1.07244 0,-0.79022 -0.47978,-1.05833 -0.47978,-0.26812 -1.28411,-0.26812 h -2.04611 z"
         style="font-style:normal;font-variant:normal;font-weight:500;font-stretch:normal;font-size:14.11111069px;font-family:Rubik;-inkscape-font-specification:'Rubik Medium';fill:#212121;fill-opacity:1"
         id="path1412" />
      <path
         d="m 135.82223,162.37074 q 0.0282,-0.18345 0.14111,-0.26811 0.127,-0.0988 0.26812,-0.0988 h 1.143 q 0.15522,0 0.26811,0.11289 0.127,0.0988 0.11289,0.26811 -0.0423,0.57855 -0.29634,1.15711 -0.23989,0.57855 -0.74789,1.04422 -0.508,0.46567 -1.28411,0.762 -0.77611,0.29633 -1.87678,0.29633 -0.97366,0 -1.72155,-0.28222 -0.74789,-0.29633 -1.27,-0.80433 -0.52211,-0.52211 -0.81844,-1.24178 -0.28223,-0.71967 -0.33867,-1.56633 -0.0282,-0.53622 -0.0282,-1.18534 0,-0.64911 0.0282,-1.18533 0.0564,-0.84667 0.33867,-1.56633 0.29633,-0.71967 0.81844,-1.22767 0.52211,-0.52211 1.27,-0.80433 0.74789,-0.29634 1.72155,-0.29634 1.10067,0 1.87678,0.29634 0.77611,0.29633 1.28411,0.762 0.508,0.46566 0.74789,1.05833 0.254,0.57856 0.29634,1.143 0.0141,0.16933 -0.11289,0.28222 -0.11289,0.0988 -0.26811,0.0988 h -1.143 q -0.14112,0 -0.26812,-0.0847 -0.127,-0.0988 -0.15522,-0.28222 -0.0423,-0.28222 -0.19755,-0.55033 -0.15523,-0.26811 -0.42334,-0.47978 -0.26811,-0.21167 -0.67733,-0.33867 -0.40922,-0.14111 -0.95956,-0.14111 -0.55033,0 -0.95955,0.16934 -0.40922,0.16933 -0.69145,0.45155 -0.26811,0.28222 -0.42333,0.67734 -0.14111,0.39511 -0.16933,0.83255 -0.0282,0.53622 -0.0282,1.18533 0,0.64912 0.0282,1.18534 0.0282,0.45155 0.16933,0.84666 0.15522,0.381 0.42333,0.66323 0.28223,0.28222 0.69145,0.45155 0.40922,0.16933 0.95955,0.16933 0.55034,0 0.95956,-0.127 0.40922,-0.14111 0.67733,-0.35277 0.28223,-0.21167 0.43745,-0.47978 0.15522,-0.26811 0.19755,-0.55033 z"
         style="font-style:normal;font-variant:normal;font-weight:500;font-stretch:normal;font-size:14.11111069px;font-family:Rubik;-inkscape-font-specification:'Rubik Medium';fill:#212121;fill-opacity:1"
         id="path1414" />
      <path
         d="m 147.09127,155.62563 q 0.15523,0 0.26812,0.11288 0.11288,0.11289 0.11288,0.26812 v 9.11577 q 0,0.15522 -0.11288,0.26811 -0.11289,0.11289 -0.26812,0.11289 h -1.143 q -0.15522,0 -0.26811,-0.11289 -0.11289,-0.11289 -0.11289,-0.26811 v -3.72533 h -4.26155 v 3.72533 q 0,0.15522 -0.11289,0.26811 -0.11289,0.11289 -0.26811,0.11289 h -1.143 q -0.15522,0 -0.26811,-0.0988 -0.11289,-0.11288 -0.11289,-0.28222 v -9.11577 q 0,-0.15523 0.11289,-0.26812 0.11289,-0.11288 0.26811,-0.11288 h 1.143 q 0.15522,0 0.26811,0.11288 0.11289,0.11289 0.11289,0.26812 v 3.62655 h 4.26155 v -3.62655 q 0,-0.15523 0.11289,-0.26812 0.11289,-0.11288 0.26811,-0.11288 z"
         style="font-style:normal;font-variant:normal;font-weight:500;font-stretch:normal;font-size:14.11111069px;font-family:Rubik;-inkscape-font-specification:'Rubik Medium';fill:#212121;fill-opacity:1"
         id="path1416" />
    </g>
  </g>
</svg>
