<?xml version="1.0" encoding="UTF-8" standalone="no"?>
<!-- Created with Inkscape (http://www.inkscape.org/) -->

<svg
   xmlns:dc="http://purl.org/dc/elements/1.1/"
   xmlns:cc="http://creativecommons.org/ns#"
   xmlns:rdf="http://www.w3.org/1999/02/22-rdf-syntax-ns#"
   xmlns:svg="http://www.w3.org/2000/svg"
   xmlns="http://www.w3.org/2000/svg"
   xmlns:sodipodi="http://sodipodi.sourceforge.net/DTD/sodipodi-0.dtd"
   xmlns:inkscape="http://www.inkscape.org/namespaces/inkscape"
   width="24.608227mm"
   height="10.16mm"
   viewBox="0 0 24.608227 10.16"
   version="1.1"
   id="svg8"
   inkscape:version="0.92.4 (5da689c313, 2019-01-14)"
   sodipodi:docname="logo-small.svg">
  <defs
     id="defs2" />
  <sodipodi:namedview
     id="base"
     pagecolor="#ffffff"
     bordercolor="#666666"
     borderopacity="1.0"
     inkscape:pageopacity="0.0"
     inkscape:pageshadow="2"
     inkscape:zoom="1.979899"
     inkscape:cx="43.267116"
     inkscape:cy="30.365022"
     inkscape:document-units="mm"
     inkscape:current-layer="layer1"
     showgrid="false"
     inkscape:window-width="1074"
     inkscape:window-height="729"
     inkscape:window-x="276"
     inkscape:window-y="0"
     inkscape:window-maximized="0" />
  <metadata
     id="metadata5">
    <rdf:RDF>
      <cc:Work
         rdf:about="">
        <dc:format>image/svg+xml</dc:format>
        <dc:type
           rdf:resource="http://purl.org/dc/dcmitype/StillImage" />
        <dc:title />
      </cc:Work>
    </rdf:RDF>
  </metadata>
  <g
     inkscape:label="Camada 1"
     inkscape:groupmode="layer"
     id="layer1"
     transform="translate(-53.534709,-155.48451)">
    <g
       aria-label="TSC"
       style="font-style:italic;font-variant:normal;font-weight:300;font-stretch:normal;font-size:14.11111069px;line-height:1.25;font-family:Rubik;-inkscape-font-specification:'Rubik Light Italic';letter-spacing:0px;word-spacing:0px;fill:#212121;fill-opacity:1;stroke:none;stroke-width:0.26458332"
       id="text817">
      <path
         d="m 60.428994,155.62563 q 0.324556,0 0.254,0.32455 l -0.04233,0.21167 q -0.07056,0.31044 -0.381,0.31044 h -2.779889 l -1.862667,8.72067 q -0.07055,0.31044 -0.381,0.31044 h -0.254 q -0.141111,0 -0.211666,-0.0847 -0.07056,-0.0847 -0.04233,-0.22578 l 1.862667,-8.72067 h -2.794 q -0.141111,0 -0.211667,-0.0847 -0.07055,-0.0847 -0.04233,-0.22578 l 0.04233,-0.21167 q 0.07056,-0.32455 0.381,-0.32455 z"
         style="font-style:italic;font-variant:normal;font-weight:300;font-stretch:normal;font-size:14.11111069px;font-family:Rubik;-inkscape-font-specification:'Rubik Light Italic';fill:#212121;fill-opacity:1;stroke-width:0.26458332"
         id="path1435" />
      <path
         d="m 64.377018,155.48451 q 0.945445,0 1.665111,0.254 0.719667,0.254 1.199445,0.635 0.479778,0.381 0.719666,0.84667 0.254,0.45156 0.282223,0.86078 0.01411,0.16933 -0.112889,0.28222 -0.112889,0.0988 -0.268111,0.0988 h -0.987778 q -0.239889,0 -0.366889,-0.0847 -0.112889,-0.0988 -0.211667,-0.254 -0.211666,-0.35278 -0.649111,-0.60678 -0.423333,-0.26811 -1.27,-0.26811 -0.366889,0 -0.705555,0.0847 -0.324556,0.0706 -0.578556,0.22578 -0.239889,0.14111 -0.381,0.35278 -0.141111,0.21166 -0.141111,0.47977 0,0.32456 0.127,0.53623 0.141111,0.19755 0.451556,0.35277 0.324555,0.14111 0.846666,0.26811 0.522111,0.127 1.298223,0.29634 0.846666,0.18344 1.453444,0.43744 0.620889,0.23989 1.001889,0.59267 0.395111,0.33867 0.578555,0.79022 0.197556,0.45156 0.197556,1.03011 0,0.635 -0.282222,1.18533 -0.282223,0.53623 -0.804334,0.93134 -0.522111,0.381 -1.284111,0.60678 -0.762,0.22577 -1.707444,0.22577 -0.790222,0 -1.509889,-0.18344 -0.719667,-0.19756 -1.284111,-0.55033 -0.550333,-0.36689 -0.889,-0.87489 -0.338667,-0.508 -0.381,-1.12889 -0.01411,-0.16933 0.09878,-0.26811 0.127,-0.11289 0.282222,-0.11289 h 0.987778 q 0.239889,0 0.366889,0.0847 0.127,0.0847 0.211666,0.254 0.09878,0.18344 0.239889,0.36688 0.141111,0.18345 0.381,0.32456 0.239889,0.14111 0.592667,0.23989 0.366889,0.0847 0.903111,0.0847 0.423333,0 0.818444,-0.0564 0.395111,-0.0706 0.691445,-0.21167 0.296333,-0.15522 0.479778,-0.36689 0.183444,-0.22577 0.183444,-0.55033 0,-0.31044 -0.197556,-0.508 -0.197555,-0.19755 -0.606777,-0.33866 -0.395111,-0.14112 -0.987778,-0.26812 -0.592667,-0.127 -1.368778,-0.32455 -0.705555,-0.16933 -1.241778,-0.39511 -0.522111,-0.23989 -0.874888,-0.57856 -0.338667,-0.33866 -0.508,-0.79022 -0.169334,-0.46567 -0.169334,-1.10067 0,-0.635 0.282222,-1.17122 0.282223,-0.53622 0.776112,-0.91722 0.493888,-0.381 1.171222,-0.59267 0.691444,-0.22578 1.481666,-0.22578 z"
         style="font-style:normal;font-variant:normal;font-weight:500;font-stretch:normal;font-size:14.11111069px;font-family:Rubik;-inkscape-font-specification:'Rubik Medium';fill:#212121;fill-opacity:1"
         id="path1437" />
      <path
         d="m 76.208302,162.37074 q 0.02822,-0.18345 0.141111,-0.26811 0.127,-0.0988 0.268111,-0.0988 h 1.143 q 0.155222,0 0.268111,0.11289 0.127,0.0988 0.112889,0.26811 -0.04233,0.57855 -0.296333,1.15711 -0.239889,0.57855 -0.747889,1.04422 -0.508,0.46567 -1.284111,0.762 -0.776111,0.29633 -1.876778,0.29633 -0.973666,0 -1.721555,-0.28222 -0.747889,-0.29633 -1.27,-0.80433 -0.522111,-0.52211 -0.818445,-1.24178 -0.282222,-0.71967 -0.338666,-1.56633 -0.02822,-0.53622 -0.02822,-1.18534 0,-0.64911 0.02822,-1.18533 0.05644,-0.84667 0.338666,-1.56633 0.296334,-0.71967 0.818445,-1.22767 0.522111,-0.52211 1.27,-0.80433 0.747889,-0.29634 1.721555,-0.29634 1.100667,0 1.876778,0.29634 0.776111,0.29633 1.284111,0.762 0.508,0.46566 0.747889,1.05833 0.254,0.57856 0.296333,1.143 0.01411,0.16933 -0.112889,0.28222 -0.112889,0.0988 -0.268111,0.0988 h -1.143 q -0.141111,0 -0.268111,-0.0847 -0.127,-0.0988 -0.155222,-0.28222 -0.04233,-0.28222 -0.197556,-0.55033 -0.155222,-0.26811 -0.423333,-0.47978 -0.268111,-0.21167 -0.677333,-0.33867 -0.409222,-0.14111 -0.959556,-0.14111 -0.550333,0 -0.959555,0.16934 -0.409222,0.16933 -0.691445,0.45155 -0.268111,0.28222 -0.423333,0.67734 -0.141111,0.39511 -0.169333,0.83255 -0.02822,0.53622 -0.02822,1.18533 0,0.64912 0.02822,1.18534 0.02822,0.45155 0.169333,0.84666 0.155222,0.381 0.423333,0.66323 0.282223,0.28222 0.691445,0.45155 0.409222,0.16933 0.959555,0.16933 0.550334,0 0.959556,-0.127 0.409222,-0.14111 0.677333,-0.35277 0.282222,-0.21167 0.437445,-0.47978 0.155222,-0.26811 0.197555,-0.55033 z"
         style="font-style:normal;font-variant:normal;font-weight:500;font-stretch:normal;font-size:14.11111069px;font-family:Rubik;-inkscape-font-specification:'Rubik Medium';fill:#212121;fill-opacity:1"
         id="path1439" />
    </g>
  </g>
</svg>
