<?xml version="1.0" encoding="UTF-8"?>
<!-- Created with Inkscape (http://www.inkscape.org/) -->
<svg width="24.608mm" height="10.16mm" version="1.1" viewBox="0 0 24.608 10.16" xmlns="http://www.w3.org/2000/svg" xmlns:cc="http://creativecommons.org/ns#" xmlns:dc="http://purl.org/dc/elements/1.1/" xmlns:rdf="http://www.w3.org/1999/02/22-rdf-syntax-ns#">
 <metadata>
  <rdf:RDF>
   <cc:Work rdf:about="">
    <dc:format>image/svg+xml</dc:format>
    <dc:type rdf:resource="http://purl.org/dc/dcmitype/StillImage"/>
    <dc:title/>
   </cc:Work>
  </rdf:RDF>
 </metadata>
 <g transform="translate(-53.535 -155.48)">
  <g fill="#212121" stroke-width=".26458" aria-label="TSC">
   <path d="m60.429 155.63q0.32456 0 0.254 0.32455l-0.04233 0.21167q-0.07056 0.31044-0.381 0.31044h-2.7799l-1.8627 8.7207q-0.07055 0.31044-0.381 0.31044h-0.254q-0.14111 0-0.21167-0.0847-0.07056-0.0847-0.04233-0.22578l1.8627-8.7207h-2.794q-0.14111 0-0.21167-0.0847-0.07055-0.0847-0.04233-0.22578l0.04233-0.21167q0.07056-0.32455 0.381-0.32455z" stroke-width=".26458"/>
   <path d="m64.377 155.48q0.94544 0 1.6651 0.254 0.71967 0.254 1.1994 0.635t0.71967 0.84667q0.254 0.45156 0.28222 0.86078 0.01411 0.16933-0.11289 0.28222-0.11289 0.0988-0.26811 0.0988h-0.98778q-0.23989 0-0.36689-0.0847-0.11289-0.0988-0.21167-0.254-0.21167-0.35278-0.64911-0.60678-0.42333-0.26811-1.27-0.26811-0.36689 0-0.70556 0.0847-0.32456 0.0706-0.57856 0.22578-0.23989 0.14111-0.381 0.35278-0.14111 0.21166-0.14111 0.47977 0 0.32456 0.127 0.53623 0.14111 0.19755 0.45156 0.35277 0.32456 0.14111 0.84667 0.26811t1.2982 0.29634q0.84667 0.18344 1.4534 0.43744 0.62089 0.23989 1.0019 0.59267 0.39511 0.33867 0.57856 0.79022 0.19756 0.45156 0.19756 1.0301 0 0.635-0.28222 1.1853-0.28222 0.53623-0.80433 0.93134-0.52211 0.381-1.2841 0.60678-0.762 0.22577-1.7074 0.22577-0.79022 0-1.5099-0.18344-0.71967-0.19756-1.2841-0.55033-0.55033-0.36689-0.889-0.87489t-0.381-1.1289q-0.01411-0.16933 0.09878-0.26811 0.127-0.11289 0.28222-0.11289h0.98778q0.23989 0 0.36689 0.0847t0.21167 0.254q0.09878 0.18344 0.23989 0.36688 0.14111 0.18345 0.381 0.32456t0.59267 0.23989q0.36689 0.0847 0.90311 0.0847 0.42333 0 0.81844-0.0564 0.39511-0.0706 0.69144-0.21167 0.29633-0.15522 0.47978-0.36689 0.18344-0.22577 0.18344-0.55033 0-0.31044-0.19756-0.508-0.19756-0.19755-0.60678-0.33866-0.39511-0.14112-0.98778-0.26812t-1.3688-0.32455q-0.70556-0.16933-1.2418-0.39511-0.52211-0.23989-0.87489-0.57856-0.33867-0.33866-0.508-0.79022-0.16933-0.46567-0.16933-1.1007t0.28222-1.1712q0.28222-0.53622 0.77611-0.91722 0.49389-0.381 1.1712-0.59267 0.69144-0.22578 1.4817-0.22578z"/>
   <path d="m76.208 162.37q0.02822-0.18345 0.14111-0.26811 0.127-0.0988 0.26811-0.0988h1.143q0.15522 0 0.26811 0.11289 0.127 0.0988 0.11289 0.26811-0.04233 0.57855-0.29633 1.1571-0.23989 0.57855-0.74789 1.0442t-1.2841 0.762-1.8768 0.29633q-0.97367 0-1.7216-0.28222-0.74789-0.29633-1.27-0.80433-0.52211-0.52211-0.81844-1.2418-0.28222-0.71967-0.33867-1.5663-0.02822-0.53622-0.02822-1.1853 0-0.64911 0.02822-1.1853 0.05644-0.84667 0.33867-1.5663 0.29633-0.71967 0.81844-1.2277 0.52211-0.52211 1.27-0.80433 0.74789-0.29634 1.7216-0.29634 1.1007 0 1.8768 0.29634 0.77611 0.29633 1.2841 0.762 0.508 0.46566 0.74789 1.0583 0.254 0.57856 0.29633 1.143 0.01411 0.16933-0.11289 0.28222-0.11289 0.0988-0.26811 0.0988h-1.143q-0.14111 0-0.26811-0.0847-0.127-0.0988-0.15522-0.28222-0.04233-0.28222-0.19756-0.55033-0.15522-0.26811-0.42333-0.47978t-0.67733-0.33867q-0.40922-0.14111-0.95956-0.14111-0.55033 0-0.95956 0.16934-0.40922 0.16933-0.69144 0.45155-0.26811 0.28222-0.42333 0.67734-0.14111 0.39511-0.16933 0.83255-0.02822 0.53622-0.02822 1.1853 0 0.64912 0.02822 1.1853 0.02822 0.45155 0.16933 0.84666 0.15522 0.381 0.42333 0.66323 0.28222 0.28222 0.69144 0.45155t0.95956 0.16933q0.55033 0 0.95956-0.127 0.40922-0.14111 0.67733-0.35277 0.28222-0.21167 0.43744-0.47978 0.15522-0.26811 0.19756-0.55033z"/>
  </g>
 </g>
</svg>
